<?xml version="1.0" encoding="utf-8"?>
<!-- Generator: Adobe Illustrator 24.2.0, SVG Export Plug-In . SVG Version: 6.00 Build 0)  -->
<svg version="1.1" id="Camada_1"
	xmlns="http://www.w3.org/2000/svg"
	xmlns:xlink="http://www.w3.org/1999/xlink" x="0px" y="0px" viewBox="0 0 360 87" style="enable-background:new 0 0 360 87;" xml:space="preserve">
	<style type="text/css">
	.st0{fill:#1BC133;}
	.st1{fill:#38E655;}
	.st2{fill:#353535;}
	</style>
	<g>
		<g>
			<polygon class="st0" points="351,18 351,9 261,9 87,9 9,9 9,18 0,18 0,78 9,78 9,87 87,87 261,87 351,87 351,78 360,78 360,18 		
			"/>
			<polygon class="st1" points="351,9 351,0 261,0 87,0 9,0 9,9 0,9 0,69 9,69 9,78 87,78 261,78 351,78 351,69 360,69 360,9 		"/>
		</g>
	</g>
</svg>
